<svg id="visual" viewBox="0 0 900 600" width="900" height="600" xmlns="http://www.w3.org/2000/svg" xmlns:xlink="http://www.w3.org/1999/xlink" version="1.1"><g transform="translate(931.2859061294207 -22.32685179668192)"><path d="M177.6 -278.6C260.3 -184.3 378.4 -172.8 464.4 -104.5C550.3 -36.3 604.2 88.8 602.3 226.9C600.4 365 542.7 516.2 433 579.9C323.3 643.6 161.6 619.8 60.6 536.4C-40.4 453 -80.8 309.9 -189.4 245.9C-298 181.8 -474.7 196.7 -573.7 130.2C-672.7 63.7 -694 -84.4 -623.4 -172C-552.8 -259.6 -390.4 -286.7 -271.2 -369.2C-152 -451.6 -76 -589.3 -14.3 -569.6C47.4 -549.9 94.8 -372.9 177.6 -278.6" fill="#eec7b4"></path></g></svg>