<svg id="visual" viewBox="0 0 900 600" width="900" height="600" xmlns="http://www.w3.org/2000/svg" xmlns:xlink="http://www.w3.org/1999/xlink" version="1.1"><g transform="translate(939.5585470379913 113.58522113701906)"><path d="M337.9 -483.1C426.2 -400.9 478 -286.5 509.1 -170.3C540.2 -54 550.7 64.2 502.3 147.9C454 231.6 346.9 280.8 253.4 317.1C159.9 353.4 79.9 376.7 12.4 359.6C-55.1 342.5 -110.2 285 -195.5 246.1C-280.8 207.1 -396.2 186.7 -487.5 110.1C-578.9 33.6 -646.1 -99.1 -599.4 -179.9C-552.7 -260.8 -392.2 -289.8 -273.3 -362C-154.4 -434.2 -77.2 -549.6 23.8 -582.3C124.8 -615.1 249.6 -565.2 337.9 -483.1" fill="#f0cfbe"></path></g></svg>