<svg id="visual" viewBox="0 0 900 600" width="900" height="600" xmlns="http://www.w3.org/2000/svg" xmlns:xlink="http://www.w3.org/1999/xlink" version="1.1"><path d="M0 109L13.7 101C27.3 93 54.7 77 82 78C109.3 79 136.7 97 163.8 102C191 107 218 99 245.2 96C272.3 93 299.7 95 327 99C354.3 103 381.7 109 409 105C436.3 101 463.7 87 491 85C518.3 83 545.7 93 573 100C600.3 107 627.7 111 654.8 110C682 109 709 103 736.2 100C763.3 97 790.7 97 818 92C845.3 87 872.7 77 886.3 72L900 67L900 0L886.3 0C872.7 0 845.3 0 818 0C790.7 0 763.3 0 736.2 0C709 0 682 0 654.8 0C627.7 0 600.3 0 573 0C545.7 0 518.3 0 491 0C463.7 0 436.3 0 409 0C381.7 0 354.3 0 327 0C299.7 0 272.3 0 245.2 0C218 0 191 0 163.8 0C136.7 0 109.3 0 82 0C54.7 0 27.3 0 13.7 0L0 0Z" fill="#a5938d"></path><path d="M0 181L13.7 176C27.3 171 54.7 161 82 161C109.3 161 136.7 171 163.8 180C191 189 218 197 245.2 198C272.3 199 299.7 193 327 187C354.3 181 381.7 175 409 179C436.3 183 463.7 197 491 197C518.3 197 545.7 183 573 177C600.3 171 627.7 173 654.8 181C682 189 709 203 736.2 212C763.3 221 790.7 225 818 212C845.3 199 872.7 169 886.3 154L900 139L900 65L886.3 70C872.7 75 845.3 85 818 90C790.7 95 763.3 95 736.2 98C709 101 682 107 654.8 108C627.7 109 600.3 105 573 98C545.7 91 518.3 81 491 83C463.7 85 436.3 99 409 103C381.7 107 354.3 101 327 97C299.7 93 272.3 91 245.2 94C218 97 191 105 163.8 100C136.7 95 109.3 77 82 76C54.7 75 27.3 91 13.7 99L0 107Z" fill="#c9bab5"></path><path d="M0 283L13.7 281C27.3 279 54.7 275 82 286C109.3 297 136.7 323 163.8 348C191 373 218 397 245.2 406C272.3 415 299.7 409 327 404C354.3 399 381.7 395 409 391C436.3 387 463.7 383 491 378C518.3 373 545.7 367 573 379C600.3 391 627.7 421 654.8 409C682 397 709 343 736.2 326C763.3 309 790.7 329 818 327C845.3 325 872.7 301 886.3 289L900 277L900 137L886.3 152C872.7 167 845.3 197 818 210C790.7 223 763.3 219 736.2 210C709 201 682 187 654.8 179C627.7 171 600.3 169 573 175C545.7 181 518.3 195 491 195C463.7 195 436.3 181 409 177C381.7 173 354.3 179 327 185C299.7 191 272.3 197 245.2 196C218 195 191 187 163.8 178C136.7 169 109.3 159 82 159C54.7 159 27.3 169 13.7 174L0 179Z" fill="#d7cbc8"></path><path d="M0 379L13.7 376C27.3 373 54.7 367 82 369C109.3 371 136.7 381 163.8 405C191 429 218 467 245.2 485C272.3 503 299.7 501 327 491C354.3 481 381.7 463 409 450C436.3 437 463.7 429 491 429C518.3 429 545.7 437 573 448C600.3 459 627.7 473 654.8 464C682 455 709 423 736.2 409C763.3 395 790.7 399 818 386C845.3 373 872.7 343 886.3 328L900 313L900 275L886.3 287C872.7 299 845.3 323 818 325C790.7 327 763.3 307 736.2 324C709 341 682 395 654.8 407C627.7 419 600.3 389 573 377C545.7 365 518.3 371 491 376C463.7 381 436.3 385 409 389C381.7 393 354.3 397 327 402C299.7 407 272.3 413 245.2 404C218 395 191 371 163.8 346C136.7 321 109.3 295 82 284C54.7 273 27.3 277 13.7 279L0 281Z" fill="#c9bab5"></path><path d="M0 601L13.7 601C27.3 601 54.7 601 82 601C109.3 601 136.7 601 163.8 601C191 601 218 601 245.2 601C272.3 601 299.7 601 327 601C354.3 601 381.7 601 409 601C436.3 601 463.7 601 491 601C518.3 601 545.7 601 573 601C600.3 601 627.7 601 654.8 601C682 601 709 601 736.2 601C763.3 601 790.7 601 818 601C845.3 601 872.7 601 886.3 601L900 601L900 311L886.3 326C872.7 341 845.3 371 818 384C790.7 397 763.3 393 736.2 407C709 421 682 453 654.8 462C627.7 471 600.3 457 573 446C545.7 435 518.3 427 491 427C463.7 427 436.3 435 409 448C381.7 461 354.3 479 327 489C299.7 499 272.3 501 245.2 483C218 465 191 427 163.8 403C136.7 379 109.3 369 82 367C54.7 365 27.3 371 13.7 374L0 377Z" fill="#a5938d"></path></svg>